<?xml version="1.0" encoding="utf-8"?>
<!-- Generator: Adobe Illustrator 25.4.1, SVG Export Plug-In . SVG Version: 6.00 Build 0)  -->
<svg version="1.1" xmlns="http://www.w3.org/2000/svg" xmlns:xlink="http://www.w3.org/1999/xlink" x="0px" y="0px"
	 viewBox="0 0 764.6 190.1" style="enable-background:new 0 0 764.6 190.1;" xml:space="preserve">
<style type="text/css">
	.st0{fill:#050509;}
	.st1{fill:url(#SVGID_1_);}
	.st2{fill:url(#SVGID_00000106132823736961472030000004911823515064446621_);}
</style>
<g>
	<path class="st0" d="M5.4,19.9v79.2h20.4V8.7h-9.3C10.3,8.7,5.4,13.7,5.4,19.9C5.4,19.9,5.4,19.9,5.4,19.9z"/>
	<path class="st0" d="M97.5,19.7v43.4L56.7,8.9l-0.1-0.1H38.1v90.4h20V42.9l42.1,56l0.1,0.1h17.1V8.7h-9
		C102.4,8.7,97.5,13.6,97.5,19.7z"/>
	<path class="st0" d="M208.1,26.9V8.7h-8.3c-6.4,0-11.7,5.2-11.7,11.7c0,0,0,0,0,0v42.7L147.4,8.9l-0.1-0.1h-18.5v90.4h20V42.9
		l42,56l0.1,0.1h17.1V82.3C199.8,64.8,199.8,44.4,208.1,26.9L208.1,26.9z"/>
	<path class="st0" d="M404.5,8.7h-22l-23.1,62.4L336.4,8.7h-22.5l1.3,3.2c9.8,11.1,15.5,25.3,16.1,40.2l19,47.6h17.9l36.2-90.4
		L404.5,8.7z"/>
	<path class="st0" d="M441.1,8.1h-18.6l-38.3,90.5l-0.2,0.5h20.9l8.2-20.1h37.2l8.1,19.9l0.1,0.2h21.3L441.2,8.3L441.1,8.1z
		 M420.3,60.8l11.3-27.6l11.3,27.6H420.3z"/>
	<path class="st0" d="M461.6,16.3c0,6.4,5.2,11.6,11.6,11.6h15.5v71.4h20.4V27.9h27.2V9h-74.7V16.3z"/>
	<path class="st0" d="M554.2,8.7h-8.9v90.4h20.4V20.3C565.7,13.9,560.6,8.7,554.2,8.7C554.2,8.7,554.2,8.7,554.2,8.7z"/>
	<path class="st0" d="M625.7,7.2c-26.9,0-48,20.5-48,46.7v0.2c0,26.5,20.5,46.5,47.7,46.5c26.9,0,48-20.5,48-46.7v-0.3
		C673.4,27.1,652.9,7.2,625.7,7.2z M652.1,54.1c0,15.7-11.3,27.5-26.4,27.5c-15.2,0-26.6-11.9-26.6-27.8v-0.3
		c0-15.7,11.3-27.5,26.4-27.5c15.2,0,26.6,11.9,26.6,27.8V54.1z"/>
	<path class="st0" d="M748.8,8.7h-9v54.4L699.1,8.9L699,8.7h-18.5v90.4h20V42.9l42.1,56l0.1,0.1h17.1V19.7
		C759.8,13.6,754.9,8.7,748.8,8.7z"/>
	<linearGradient id="SVGID_1_" gradientUnits="userSpaceOnUse" x1="300.3859" y1="47.376" x2="235.4926" y2="86.8763">
		<stop  offset="0" style="stop-color:#E83829"/>
		<stop  offset="1" style="stop-color:#630832"/>
	</linearGradient>
	<path class="st1" d="M262.8,23.3c-0.3,0.2-0.6,0.3-1,0.5c3.9,0.3,7.7,0.9,11.4,2c14.3,4.6,22.7,19.8,23.4,33.4
		c1,20.2-13.8,37-35.6,37.5c-12.3,0.4-24.2-4.6-32.6-13.6c-7.2-7.9-11.6-17.2-13.3-28.6c-0.1-0.3-0.4-0.5-0.7-0.5
		c-0.3,0-0.6,0.3-0.6,0.6c-0.1,2.5,0.1,5,0.5,7.4c3.1,17.8,15.7,32.7,33.7,39.9c17.9,7.1,34.7,4.3,50.2-6.2
		c24.7-16.7,23.7-53.9-2.6-69.3C286.8,21.4,272.4,18.6,262.8,23.3z"/>

		<linearGradient id="SVGID_00000158710776165066611860000011748591268801311643_" gradientUnits="userSpaceOnUse" x1="237.6403" y1="65.5694" x2="288.4263" y2="23.2477">
		<stop  offset="4.363100e-04" style="stop-color:#E83829"/>
		<stop  offset="1" style="stop-color:#630832"/>
	</linearGradient>
	<path style="fill:url(#SVGID_00000158710776165066611860000011748591268801311643_);" d="M271.7,84.5c0.3-0.2,0.6-0.3,1-0.5
		c-3.9-0.2-7.7-0.7-11.5-1.7C246.8,78.1,238,63,237.1,49.4c-1.4-20.3,13-37.4,34.7-38.4c12.3-0.7,24.3,4,32.9,12.8
		c7.4,7.7,12,17,14,28.2c0.1,0.3,0.4,0.5,0.7,0.5c0.3,0,0.6-0.3,0.6-0.6c0-2.5-0.2-5-0.6-7.4c-3.6-17.8-16.5-32.4-34.6-39.1
		c-18.1-6.7-34.8-3.5-50,7.3C210.4,30.1,212.3,67.3,239,82C247.8,86.9,262.2,89.4,271.7,84.5z"/>
	<g>
		<path class="st0" d="M5.1,136.3L5.1,136.3c0-7.1,5.3-12.8,12.8-12.8c4.6,0,7.4,1.5,9.7,3.8l-3.4,4c-1.9-1.7-3.8-2.8-6.3-2.8
			c-4.1,0-7.1,3.4-7.1,7.7v0.1c0,4.2,2.9,7.7,7.1,7.7c2.8,0,4.5-1.1,6.5-2.9l3.4,3.5c-2.5,2.7-5.3,4.4-10.1,4.4
			C10.5,148.9,5.1,143.3,5.1,136.3z"/>
		<path class="st0" d="M29.5,143.1L29.5,143.1c0-4.2,3.1-6.1,7.6-6.1c1.9,0,3.3,0.3,4.6,0.8v-0.3c0-2.2-1.4-3.4-4-3.4
			c-2,0-3.5,0.4-5.2,1l-1.3-4.1c2.1-0.9,4.1-1.5,7.3-1.5c2.9,0,5,0.8,6.4,2.1c1.4,1.4,2,3.5,2,6v10.9h-5.2v-2
			c-1.3,1.4-3.1,2.4-5.7,2.4C32.4,148.8,29.5,146.8,29.5,143.1z M41.7,141.9v-0.9c-0.9-0.4-2.1-0.7-3.4-0.7c-2.3,0-3.7,0.9-3.7,2.6
			v0.1c0,1.4,1.2,2.3,2.9,2.3C40.1,145.2,41.7,143.8,41.7,141.9z"/>
		<path class="st0" d="M50.4,129.7h5.3v2.7c1.2-1.6,2.8-3,5.5-3c4,0,6.4,2.7,6.4,7v12.2h-5.3V138c0-2.5-1.2-3.8-3.2-3.8
			c-2,0-3.3,1.3-3.3,3.8v10.5h-5.3V129.7z"/>
		<path class="st0" d="M70,143.1L70,143.1c0-4.2,3.1-6.1,7.6-6.1c1.9,0,3.3,0.3,4.6,0.8v-0.3c0-2.2-1.4-3.4-4-3.4
			c-2,0-3.5,0.4-5.2,1l-1.3-4.1c2.1-0.9,4.1-1.5,7.3-1.5c2.9,0,5,0.8,6.4,2.1c1.4,1.4,2,3.5,2,6v10.9h-5.2v-2
			c-1.3,1.4-3.1,2.4-5.7,2.4C73,148.8,70,146.8,70,143.1z M82.3,141.9v-0.9c-0.9-0.4-2.1-0.7-3.4-0.7c-2.3,0-3.7,0.9-3.7,2.6v0.1
			c0,1.4,1.2,2.3,2.9,2.3C80.6,145.2,82.3,143.8,82.3,141.9z"/>
		<path class="st0" d="M90,139.1L90,139.1c0-6.4,4.1-9.8,8.6-9.8c2.8,0,4.6,1.3,5.9,2.8v-9.3h5.3v25.7h-5.3v-2.7
			c-1.3,1.8-3.1,3.1-5.9,3.1C94.2,148.8,90,145.4,90,139.1z M104.5,139.1L104.5,139.1c0-3.2-2.1-5.3-4.6-5.3c-2.5,0-4.6,2-4.6,5.2
			v0.1c0,3.1,2.1,5.2,4.6,5.2C102.5,144.3,104.5,142.2,104.5,139.1z"/>
		<path class="st0" d="M112.4,143.1L112.4,143.1c0-4.2,3.1-6.1,7.6-6.1c1.9,0,3.3,0.3,4.6,0.8v-0.3c0-2.2-1.4-3.4-4-3.4
			c-2,0-3.5,0.4-5.2,1l-1.3-4.1c2.1-0.9,4.1-1.5,7.3-1.5c2.9,0,5,0.8,6.4,2.1c1.4,1.4,2,3.5,2,6v10.9h-5.2v-2
			c-1.3,1.4-3.1,2.4-5.7,2.4C115.4,148.8,112.4,146.8,112.4,143.1z M124.7,141.9v-0.9c-0.9-0.4-2.1-0.7-3.4-0.7
			c-2.3,0-3.7,0.9-3.7,2.6v0.1c0,1.4,1.2,2.3,2.9,2.3C123,145.2,124.7,143.8,124.7,141.9z"/>
		<path class="st0" d="M143.4,123.9h18.7v4.9h-13.3v5.2h11.7v4.9h-11.7v9.5h-5.4V123.9z"/>
		<path class="st0" d="M163,139.2L163,139.2c0-5.5,4.4-9.9,10.2-9.9c5.8,0,10.2,4.3,10.2,9.7v0.1c0,5.4-4.4,9.8-10.2,9.8
			C167.4,148.9,163,144.6,163,139.2z M178.2,139.2L178.2,139.2c0-2.8-2-5.3-5-5.3c-3.1,0-4.9,2.4-4.9,5.1v0.1c0,2.8,2,5.2,5,5.2
			C176.3,144.3,178.2,142,178.2,139.2z"/>
		<path class="st0" d="M185.9,141.9v-12.2h5.3v10.5c0,2.5,1.2,3.8,3.2,3.8c2,0,3.3-1.3,3.3-3.8v-10.5h5.3v18.8h-5.3v-2.7
			c-1.2,1.6-2.8,3-5.5,3C188.3,148.8,185.9,146.2,185.9,141.9z"/>
		<path class="st0" d="M206.9,129.7h5.3v2.7c1.2-1.6,2.8-3,5.5-3c4,0,6.4,2.7,6.4,7v12.2h-5.3V138c0-2.5-1.2-3.8-3.2-3.8
			s-3.3,1.3-3.3,3.8v10.5h-5.3V129.7z"/>
		<path class="st0" d="M226.9,139.1L226.9,139.1c0-6.4,4.1-9.8,8.6-9.8c2.8,0,4.6,1.3,5.9,2.8v-9.3h5.3v25.7h-5.3v-2.7
			c-1.3,1.8-3.1,3.1-5.9,3.1C231.1,148.8,226.9,145.4,226.9,139.1z M241.4,139.1L241.4,139.1c0-3.2-2.1-5.3-4.6-5.3
			c-2.5,0-4.6,2-4.6,5.2v0.1c0,3.1,2.1,5.2,4.6,5.2C239.4,144.3,241.4,142.2,241.4,139.1z"/>
		<path class="st0" d="M249.3,143.1L249.3,143.1c0-4.2,3.1-6.1,7.6-6.1c1.9,0,3.3,0.3,4.6,0.8v-0.3c0-2.2-1.4-3.4-4-3.4
			c-2,0-3.5,0.4-5.2,1L251,131c2.1-0.9,4.1-1.5,7.3-1.5c2.9,0,5,0.8,6.4,2.1c1.4,1.4,2,3.5,2,6v10.9h-5.2v-2
			c-1.3,1.4-3.1,2.4-5.7,2.4C252.3,148.8,249.3,146.8,249.3,143.1z M261.6,141.9v-0.9c-0.9-0.4-2.1-0.7-3.4-0.7
			c-2.3,0-3.7,0.9-3.7,2.6v0.1c0,1.4,1.2,2.3,2.9,2.3C259.9,145.2,261.6,143.8,261.6,141.9z"/>
		<path class="st0" d="M270.9,143.2v-8.9h-2.2v-4.6h2.2v-4.8h5.3v4.8h4.4v4.6h-4.4v8c0,1.2,0.5,1.8,1.7,1.8c1,0,1.9-0.2,2.6-0.7v4.3
			c-1.1,0.7-2.4,1.1-4.2,1.1C273.1,148.8,270.9,147.5,270.9,143.2z"/>
		<path class="st0" d="M283.6,122.8h5.6v4.7h-5.6V122.8z M283.7,129.7h5.3v18.8h-5.3V129.7z"/>
		<path class="st0" d="M291.8,139.2L291.8,139.2c0-5.5,4.4-9.9,10.2-9.9c5.8,0,10.2,4.3,10.2,9.7v0.1c0,5.4-4.4,9.8-10.2,9.8
			C296.1,148.9,291.8,144.6,291.8,139.2z M306.9,139.2L306.9,139.2c0-2.8-2-5.3-5-5.3c-3.1,0-4.9,2.4-4.9,5.1v0.1c0,2.8,2,5.2,5,5.2
			C305.1,144.3,306.9,142,306.9,139.2z"/>
		<path class="st0" d="M314.9,129.7h5.3v2.7c1.2-1.6,2.8-3,5.5-3c4,0,6.4,2.7,6.4,7v12.2h-5.3V138c0-2.5-1.2-3.8-3.2-3.8
			c-2,0-3.3,1.3-3.3,3.8v10.5h-5.3V129.7z"/>
		<path class="st0" d="M6.6,169.6H4.4v-4.4h2.2V164c0-2.1,0.5-3.6,1.5-4.6c1-1,2.4-1.5,4.3-1.5c1.7,0,2.8,0.2,3.8,0.5v4.4
			c-0.8-0.3-1.5-0.5-2.4-0.5c-1.2,0-1.9,0.6-1.9,2v0.7h4.3v4.4h-4.3v14.3H6.6V169.6z"/>
		<path class="st0" d="M16.8,174.6L16.8,174.6c0-5.5,4.4-9.9,10.2-9.9c5.8,0,10.2,4.3,10.2,9.7v0.1c0,5.4-4.4,9.8-10.2,9.8
			C21.1,184.3,16.8,180,16.8,174.6z M31.9,174.6L31.9,174.6c0-2.8-2-5.3-5-5.3c-3.1,0-4.9,2.4-4.9,5.1v0.1c0,2.8,2,5.2,5,5.2
			C30.1,179.7,31.9,177.3,31.9,174.6z"/>
		<path class="st0" d="M39.9,165h5.3v3.8c1.1-2.6,2.8-4.3,6-4.1v5.6H51c-3.5,0-5.7,2.1-5.7,6.6v7h-5.3V165z"/>
		<path class="st0" d="M63.9,159.3h5.4v24.6h-5.4V159.3z"/>
		<path class="st0" d="M73.7,165H79v2.7c1.2-1.6,2.8-3,5.5-3c4,0,6.4,2.7,6.4,7v12.2h-5.3v-10.5c0-2.5-1.2-3.8-3.2-3.8
			s-3.3,1.3-3.3,3.8v10.5h-5.3V165z"/>
		<path class="st0" d="M94.6,165h5.3v2.7c1.2-1.6,2.8-3,5.5-3c4,0,6.4,2.7,6.4,7v12.2h-5.3v-10.5c0-2.5-1.2-3.8-3.2-3.8
			s-3.3,1.3-3.3,3.8v10.5h-5.3V165z"/>
		<path class="st0" d="M114.4,174.6L114.4,174.6c0-5.5,4.4-9.9,10.2-9.9c5.8,0,10.2,4.3,10.2,9.7v0.1c0,5.4-4.4,9.8-10.2,9.8
			C118.7,184.3,114.4,180,114.4,174.6z M129.5,174.6L129.5,174.6c0-2.8-2-5.3-5-5.3c-3.1,0-4.9,2.4-4.9,5.1v0.1c0,2.8,2,5.2,5,5.2
			C127.7,179.7,129.5,177.3,129.5,174.6z"/>
		<path class="st0" d="M134.8,165h5.7l4.2,12.6l4.3-12.6h5.6l-7.4,19h-4.8L134.8,165z"/>
		<path class="st0" d="M154.7,178.5L154.7,178.5c0-4.2,3.1-6.1,7.6-6.1c1.9,0,3.3,0.3,4.6,0.8v-0.3c0-2.2-1.4-3.4-4-3.4
			c-2,0-3.5,0.4-5.2,1l-1.3-4.1c2.1-0.9,4.1-1.5,7.3-1.5c2.9,0,5,0.8,6.4,2.1c1.4,1.4,2,3.5,2,6v10.9h-5.2v-2
			c-1.3,1.4-3.1,2.4-5.7,2.4C157.6,184.2,154.7,182.2,154.7,178.5z M166.9,177.2v-0.9c-0.9-0.4-2.1-0.7-3.4-0.7
			c-2.3,0-3.7,0.9-3.7,2.6v0.1c0,1.4,1.2,2.3,2.9,2.3C165.2,180.5,166.9,179.2,166.9,177.2z"/>
		<path class="st0" d="M176.2,178.5v-8.9h-2.2V165h2.2v-4.8h5.3v4.8h4.4v4.6h-4.4v8c0,1.2,0.5,1.8,1.7,1.8c1,0,1.9-0.2,2.6-0.7v4.3
			c-1.1,0.7-2.4,1.1-4.2,1.1C178.4,184.2,176.2,182.9,176.2,178.5z"/>
		<path class="st0" d="M188.9,158.2h5.6v4.7h-5.6V158.2z M189,165h5.3v18.8H189V165z"/>
		<path class="st0" d="M197.1,174.6L197.1,174.6c0-5.5,4.4-9.9,10.2-9.9c5.8,0,10.2,4.3,10.2,9.7v0.1c0,5.4-4.4,9.8-10.2,9.8
			C201.4,184.3,197.1,180,197.1,174.6z M212.2,174.6L212.2,174.6c0-2.8-2-5.3-5-5.3c-3.1,0-4.9,2.4-4.9,5.1v0.1c0,2.8,2,5.2,5,5.2
			C210.4,179.7,212.2,177.3,212.2,174.6z"/>
		<path class="st0" d="M220.2,165h5.3v2.7c1.2-1.6,2.8-3,5.5-3c4,0,6.4,2.7,6.4,7v12.2h-5.3v-10.5c0-2.5-1.2-3.8-3.2-3.8
			c-2,0-3.3,1.3-3.3,3.8v10.5h-5.3V165z"/>
	</g>
	<g>
		<path class="st0" d="M385.1,122.9h18.7v4.9h-13.3v5.2h11.7v4.9h-11.7v9.5h-5.4V122.9z"/>
		<path class="st0" d="M404.8,138.2L404.8,138.2c0-5.5,4.4-9.9,10.2-9.9c5.8,0,10.2,4.3,10.2,9.7v0.1c0,5.4-4.4,9.8-10.2,9.8
			C409.1,148,404.8,143.6,404.8,138.2z M419.9,138.2L419.9,138.2c0-2.8-2-5.3-5-5.3c-3.1,0-4.9,2.4-4.9,5.1v0.1c0,2.8,2,5.2,5,5.2
			C418.1,143.4,419.9,141,419.9,138.2z"/>
		<path class="st0" d="M427.9,128.7h5.3v2.7c1.2-1.6,2.8-3,5.5-3c4,0,6.4,2.7,6.4,7v12.2h-5.3V137c0-2.5-1.2-3.8-3.2-3.8
			c-2,0-3.3,1.3-3.3,3.8v10.5h-5.3V128.7z"/>
		<path class="st0" d="M447.9,138.2L447.9,138.2c0-6.4,4.1-9.8,8.6-9.8c2.8,0,4.6,1.3,5.9,2.8v-9.3h5.3v25.7h-5.3v-2.7
			c-1.3,1.8-3.1,3.1-5.9,3.1C452.1,147.9,447.9,144.4,447.9,138.2z M462.4,138.2L462.4,138.2c0-3.2-2.1-5.3-4.6-5.3
			c-2.5,0-4.6,2-4.6,5.2v0.1c0,3.1,2.1,5.2,4.6,5.2C460.3,143.4,462.4,141.3,462.4,138.2z"/>
		<path class="st0" d="M470.3,142.1L470.3,142.1c0-4.2,3.1-6.1,7.6-6.1c1.9,0,3.3,0.3,4.6,0.8v-0.3c0-2.2-1.4-3.4-4-3.4
			c-2,0-3.5,0.4-5.2,1l-1.3-4.1c2.1-0.9,4.1-1.5,7.3-1.5c2.9,0,5,0.8,6.4,2.1c1.4,1.4,2,3.5,2,6v10.9h-5.2v-2
			c-1.3,1.4-3.1,2.4-5.7,2.4C473.2,147.9,470.3,145.8,470.3,142.1z M482.6,140.9v-0.9c-0.9-0.4-2.1-0.7-3.4-0.7
			c-2.3,0-3.7,0.9-3.7,2.6v0.1c0,1.4,1.2,2.3,2.9,2.3C480.9,144.2,482.6,142.8,482.6,140.9z"/>
		<path class="st0" d="M491.8,142.2v-8.9h-2.2v-4.6h2.2v-4.8h5.3v4.8h4.4v4.6h-4.4v8c0,1.2,0.5,1.8,1.7,1.8c1,0,1.9-0.2,2.6-0.7v4.3
			c-1.1,0.7-2.4,1.1-4.2,1.1C494,147.9,491.8,146.6,491.8,142.2z"/>
		<path class="st0" d="M504.5,121.9h5.6v4.7h-5.6V121.9z M504.7,128.7h5.3v18.8h-5.3V128.7z"/>
		<path class="st0" d="M512.7,138.2L512.7,138.2c0-5.5,4.4-9.9,10.2-9.9c5.8,0,10.2,4.3,10.2,9.7v0.1c0,5.4-4.4,9.8-10.2,9.8
			C517.1,148,512.7,143.6,512.7,138.2z M527.9,138.2L527.9,138.2c0-2.8-2-5.3-5-5.3c-3.1,0-4.9,2.4-4.9,5.1v0.1c0,2.8,2,5.2,5,5.2
			C526,143.4,527.9,141,527.9,138.2z"/>
		<path class="st0" d="M535.9,128.7h5.3v2.7c1.2-1.6,2.8-3,5.5-3c4,0,6.4,2.7,6.4,7v12.2h-5.3V137c0-2.5-1.2-3.8-3.2-3.8
			c-2,0-3.3,1.3-3.3,3.8v10.5h-5.3V128.7z"/>
		<path class="st0" d="M565.3,138.2L565.3,138.2c0-5.4,4.1-9.9,9.9-9.9c3.5,0,5.8,1.2,7.5,3.2l-3.3,3.5c-1.2-1.3-2.4-2.1-4.3-2.1
			c-2.7,0-4.6,2.4-4.6,5.1v0.1c0,2.9,1.9,5.2,4.8,5.2c1.8,0,3-0.8,4.3-2l3.1,3.2c-1.8,2-3.9,3.4-7.7,3.4
			C569.4,148,565.3,143.6,565.3,138.2z"/>
		<path class="st0" d="M584,142.1L584,142.1c0-4.2,3.1-6.1,7.6-6.1c1.9,0,3.3,0.3,4.6,0.8v-0.3c0-2.2-1.4-3.4-4-3.4
			c-2,0-3.5,0.4-5.2,1l-1.3-4.1c2.1-0.9,4.1-1.5,7.3-1.5c2.9,0,5,0.8,6.4,2.1c1.4,1.4,2,3.5,2,6v10.9h-5.2v-2
			c-1.3,1.4-3.1,2.4-5.7,2.4C586.9,147.9,584,145.8,584,142.1z M596.2,140.9v-0.9c-0.9-0.4-2.1-0.7-3.4-0.7c-2.3,0-3.7,0.9-3.7,2.6
			v0.1c0,1.4,1.2,2.3,2.9,2.3C594.5,144.2,596.2,142.8,596.2,140.9z"/>
		<path class="st0" d="M604.9,128.7h5.3v2.7c1.2-1.6,2.8-3,5.5-3c4,0,6.4,2.7,6.4,7v12.2h-5.3V137c0-2.5-1.2-3.8-3.2-3.8
			c-2,0-3.3,1.3-3.3,3.8v10.5h-5.3V128.7z"/>
		<path class="st0" d="M624.5,142.1L624.5,142.1c0-4.2,3.1-6.1,7.6-6.1c1.9,0,3.3,0.3,4.6,0.8v-0.3c0-2.2-1.4-3.4-4-3.4
			c-2,0-3.5,0.4-5.2,1l-1.3-4.1c2.1-0.9,4.1-1.5,7.3-1.5c2.9,0,5,0.8,6.4,2.1c1.4,1.4,2,3.5,2,6v10.9h-5.2v-2
			c-1.3,1.4-3.1,2.4-5.7,2.4C627.4,147.9,624.5,145.8,624.5,142.1z M636.8,140.9v-0.9c-0.9-0.4-2.1-0.7-3.4-0.7
			c-2.3,0-3.7,0.9-3.7,2.6v0.1c0,1.4,1.2,2.3,2.9,2.3C635.1,144.2,636.8,142.8,636.8,140.9z"/>
		<path class="st0" d="M644.5,138.2L644.5,138.2c0-6.4,4.1-9.8,8.6-9.8c2.8,0,4.6,1.3,5.9,2.8v-9.3h5.3v25.7h-5.3v-2.7
			c-1.3,1.8-3.1,3.1-5.9,3.1C648.7,147.9,644.5,144.4,644.5,138.2z M659,138.2L659,138.2c0-3.2-2.1-5.3-4.6-5.3
			c-2.5,0-4.6,2-4.6,5.2v0.1c0,3.1,2.1,5.2,4.6,5.2C656.9,143.4,659,141.3,659,138.2z"/>
		<path class="st0" d="M668,121.9h5.6v4.7H668V121.9z M668.2,128.7h5.3v18.8h-5.3V128.7z"/>
		<path class="st0" d="M676.3,138.2L676.3,138.2c0-5.4,3.8-9.9,9.3-9.9c6.3,0,9.2,4.9,9.2,10.2c0,0.4,0,0.9-0.1,1.4h-13.1
			c0.5,2.4,2.2,3.7,4.6,3.7c1.8,0,3.1-0.6,4.6-1.9l3.1,2.7c-1.8,2.2-4.3,3.5-7.7,3.5C680.5,148,676.3,144,676.3,138.2z M689.6,136.6
			c-0.3-2.4-1.7-4-4-4c-2.2,0-3.7,1.6-4.1,4H689.6z"/>
		<path class="st0" d="M697.6,128.7h5.3v2.7c1.2-1.6,2.8-3,5.5-3c4,0,6.4,2.7,6.4,7v12.2h-5.3V137c0-2.5-1.2-3.8-3.2-3.8
			c-2,0-3.3,1.3-3.3,3.8v10.5h-5.3V128.7z"/>
		<path class="st0" d="M718.5,128.7h5.3v2.7c1.2-1.6,2.8-3,5.5-3c4,0,6.4,2.7,6.4,7v12.2h-5.3V137c0-2.5-1.2-3.8-3.2-3.8
			c-2,0-3.3,1.3-3.3,3.8v10.5h-5.3V128.7z"/>
		<path class="st0" d="M738.4,138.2L738.4,138.2c0-5.4,3.8-9.9,9.3-9.9c6.3,0,9.2,4.9,9.2,10.2c0,0.4,0,0.9-0.1,1.4h-13.1
			c0.5,2.4,2.2,3.7,4.6,3.7c1.8,0,3.1-0.6,4.6-1.9l3.1,2.7c-1.8,2.2-4.3,3.5-7.7,3.5C742.5,148,738.4,144,738.4,138.2z M751.6,136.6
			c-0.3-2.4-1.7-4-4-4c-2.2,0-3.7,1.6-4.1,4H751.6z"/>
		<path class="st0" d="M384.5,164.1h5.3v2.7c1.3-1.8,3.1-3.1,5.9-3.1c4.4,0,8.6,3.4,8.6,9.7v0.1c0,6.3-4.1,9.7-8.6,9.7
			c-2.8,0-4.6-1.3-5.9-2.8v8.1h-5.3V164.1z M399,173.5L399,173.5c0-3.2-2.1-5.3-4.6-5.3c-2.5,0-4.6,2.1-4.6,5.2v0.1
			c0,3.1,2.1,5.2,4.6,5.2C396.9,178.7,399,176.7,399,173.5z"/>
		<path class="st0" d="M406.2,173.6L406.2,173.6c0-5.5,4.4-9.9,10.2-9.9c5.8,0,10.2,4.3,10.2,9.7v0.1c0,5.4-4.4,9.8-10.2,9.8
			C410.5,183.3,406.2,179,406.2,173.6z M421.3,173.6L421.3,173.6c0-2.8-2-5.3-5-5.3c-3.1,0-4.9,2.4-4.9,5.1v0.1c0,2.8,2,5.2,5,5.2
			C419.5,178.7,421.3,176.4,421.3,173.6z"/>
		<path class="st0" d="M429.1,176.3v-12.2h5.3v10.5c0,2.5,1.2,3.8,3.2,3.8c2,0,3.3-1.3,3.3-3.8v-10.5h5.3v18.8H441v-2.7
			c-1.2,1.6-2.8,3-5.5,3C431.4,183.3,429.1,180.6,429.1,176.3z"/>
		<path class="st0" d="M450.1,164.1h5.3v3.8c1.1-2.6,2.8-4.3,6-4.1v5.6h-0.3c-3.5,0-5.7,2.1-5.7,6.6v7h-5.3V164.1z"/>
		<path class="st0" d="M473.5,157.3h5.3v25.7h-5.3V157.3z"/>
		<path class="st0" d="M481.6,167.4c2.4-0.2,3.6-1.5,3.4-3.5h-2.2v-5.6h5.7v4.7c0,4.6-2.3,6.5-6.5,6.6L481.6,167.4z"/>
		<path class="st0" d="M491.7,157.3h5.6v4.7h-5.6V157.3z M491.9,164.1h5.3v18.8h-5.3V164.1z"/>
		<path class="st0" d="M501,164.1h5.3v2.7c1.2-1.6,2.8-3,5.5-3c4,0,6.4,2.7,6.4,7v12.2h-5.3v-10.5c0-2.5-1.2-3.8-3.2-3.8
			s-3.3,1.3-3.3,3.8v10.5H501V164.1z"/>
		<path class="st0" d="M521.9,164.1h5.3v2.7c1.2-1.6,2.8-3,5.5-3c4,0,6.4,2.7,6.4,7v12.2h-5.3v-10.5c0-2.5-1.2-3.8-3.2-3.8
			c-2,0-3.3,1.3-3.3,3.8v10.5h-5.3V164.1z"/>
		<path class="st0" d="M541.8,173.6L541.8,173.6c0-5.5,4.4-9.9,10.2-9.9c5.8,0,10.2,4.3,10.2,9.7v0.1c0,5.4-4.4,9.8-10.2,9.8
			C546.1,183.3,541.8,179,541.8,173.6z M556.9,173.6L556.9,173.6c0-2.8-2-5.3-5-5.3c-3.1,0-4.9,2.4-4.9,5.1v0.1c0,2.8,2,5.2,5,5.2
			C555,178.7,556.9,176.4,556.9,173.6z"/>
		<path class="st0" d="M562.1,164.1h5.7l4.2,12.6l4.3-12.6h5.6l-7.4,19h-4.8L562.1,164.1z"/>
		<path class="st0" d="M582,177.5L582,177.5c0-4.2,3.1-6.1,7.6-6.1c1.9,0,3.3,0.3,4.6,0.8v-0.3c0-2.2-1.4-3.4-4-3.4
			c-2,0-3.5,0.4-5.2,1l-1.3-4.1c2.1-0.9,4.1-1.5,7.3-1.5c2.9,0,5,0.8,6.4,2.1c1.4,1.4,2,3.5,2,6v10.9h-5.2v-2
			c-1.3,1.4-3.1,2.4-5.7,2.4C584.9,183.3,582,181.2,582,177.5z M594.3,176.3v-0.9c-0.9-0.4-2.1-0.7-3.4-0.7c-2.3,0-3.7,0.9-3.7,2.6
			v0.1c0,1.4,1.2,2.3,2.9,2.3C592.6,179.6,594.3,178.2,594.3,176.3z"/>
		<path class="st0" d="M603.5,177.6v-8.9h-2.2v-4.6h2.2v-4.8h5.3v4.8h4.4v4.6h-4.4v8c0,1.2,0.5,1.8,1.7,1.8c1,0,1.9-0.2,2.6-0.7v4.3
			c-1.1,0.7-2.4,1.1-4.2,1.1C605.7,183.2,603.5,181.9,603.5,177.6z"/>
		<path class="st0" d="M616.3,157.3h5.6v4.7h-5.6V157.3z M616.4,164.1h5.3v18.8h-5.3V164.1z"/>
		<path class="st0" d="M624.5,173.6L624.5,173.6c0-5.5,4.4-9.9,10.2-9.9c5.8,0,10.2,4.3,10.2,9.7v0.1c0,5.4-4.4,9.8-10.2,9.8
			C628.8,183.3,624.5,179,624.5,173.6z M639.6,173.6L639.6,173.6c0-2.8-2-5.3-5-5.3c-3.1,0-4.9,2.4-4.9,5.1v0.1c0,2.8,2,5.2,5,5.2
			C637.7,178.7,639.6,176.4,639.6,173.6z"/>
		<path class="st0" d="M647.6,164.1h5.3v2.7c1.2-1.6,2.8-3,5.5-3c4,0,6.4,2.7,6.4,7v12.2h-5.3v-10.5c0-2.5-1.2-3.8-3.2-3.8
			s-3.3,1.3-3.3,3.8v10.5h-5.3V164.1z"/>
	</g>
</g>
</svg>
