<?xml version="1.0" encoding="utf-8"?>
<!-- Generator: Adobe Illustrator 21.0.0, SVG Export Plug-In . SVG Version: 6.00 Build 0)  -->
<svg version="1.1" id="Layer_1" xmlns="http://www.w3.org/2000/svg" xmlns:xlink="http://www.w3.org/1999/xlink" x="0px" y="0px"
	 viewBox="0 0 185.8 54.3" style="enable-background:new 0 0 185.8 54.3;" xml:space="preserve">
<style type="text/css">
	.st0{clip-path:url(#SVGID_2_);fill:#FFFFFF;}
	.st1{clip-path:url(#SVGID_4_);fill:#FFFFFF;}
</style>
<g>
	<defs>
		<rect id="SVGID_1_" x="-5" y="-1" width="200.3" height="58"/>
	</defs>
	<clipPath id="SVGID_2_">
		<use xlink:href="#SVGID_1_"  style="overflow:visible;"/>
	</clipPath>
	<path class="st0" d="M59.1,31.7c-1.3,0.9-2.9,1.4-4.8,1.4c-2.2,0.1-4.2-0.7-5.6-2c-1.3-1.3-1.9-3-1.9-4.9c0-2,0.8-3.8,2.1-5.1
		c1.3-1.3,3.2-2,5.2-2c1.5,0,2.5,0.3,3.8,1l0.6,0.4v-2.7l-0.3-0.1c-1.5-0.6-2.5-0.7-4.2-0.8c-2.9,0-5.6,1-7.5,2.9
		c-1.7,1.7-2.6,4-2.6,6.4c0,2.5,1,4.8,2.8,6.5c1.9,1.8,4.6,2.8,7.5,2.6c0,0,0.2,0,0.2,0c1.5,0,2.5-0.1,4-0.6c0,0,0.2-0.1,0.2-0.1
		l1.5-3.8L59.1,31.7z"/>
	<path class="st0" d="M73.8,24.9c-1.2-1.2-2.7-1.9-4.4-1.9c-1.6,0-3.3,0.6-4.4,1.8c-1.2,1.2-1.8,2.7-1.8,4.3c0,3.3,2.7,6.1,6.1,6.1
		c1.7,0,3.2-0.6,4.4-1.8c1.2-1.1,1.8-2.6,1.8-4.2C75.5,27.6,74.9,26.1,73.8,24.9 M69.3,33.2c-2,0-3.6-1.8-3.6-4
		c0-1.2,0.5-2.4,1.2-3.2c0.7-0.6,1.5-1,2.4-0.9c2,0.1,3.6,1.9,3.6,4.1l0,0.1C72.9,31.4,71.2,33.2,69.3,33.2"/>
	<path class="st0" d="M104.5,32.5c-0.7,0.5-1.9,0.8-3.2,0.9c-1.1,0-2.2-0.4-3-1.2c-0.8-0.8-1.2-1.9-1.2-3c0-2.3,1.7-4.1,4.1-4.2
		c1,0,2.1,0.3,2.8,0.8l0.7,0.5v-2.7l-0.3-0.1c-1.2-0.5-2-0.5-3.1-0.5c0,0-0.1,0-0.1,0c-1.9,0-3.6,0.6-4.9,1.8
		c-1.1,1.1-1.7,2.6-1.7,4.2c0,0,0,0.1,0,0.1c0,1.6,0.7,3.2,1.8,4.3c1.2,1.2,3,1.8,4.9,1.7l0.4,0c1,0,1.9-0.1,3-0.5c0,0,0.1,0,0.1,0
		l0.1,0l0.5-2.7L104.5,32.5z"/>
	<path class="st0" d="M119.7,24.9c-1.2-1.2-2.7-1.9-4.4-1.9c-1.6,0-3.3,0.6-4.4,1.8c-1.2,1.2-1.8,2.7-1.8,4.3c0,3.3,2.7,6.1,6.1,6.1
		c1.7,0,3.2-0.6,4.4-1.8c1.2-1.1,1.8-2.6,1.8-4.2c0,0,0-0.1,0-0.1C121.4,27.5,120.8,26.1,119.7,24.9 M115.2,33.2c-2,0-3.6-1.8-3.6-4
		c0-1.2,0.5-2.4,1.2-3.2c0.7-0.6,1.5-1,2.4-0.9c2,0.1,3.6,1.9,3.6,4.1l0,0.1C118.8,31.4,117.2,33.2,115.2,33.2"/>
	<path class="st0" d="M174.8,35l-0.3-0.6c-0.1-0.3-0.2-0.4-0.3-0.7c-0.1-0.3-0.1-0.4-0.1-0.7v-6c0-2.7-1.5-4-4.7-4.1h0
		c-1.2,0-2.4,0.1-3.5,0.8l-0.2,0.1v2.5l0.7-0.6c0.6-0.5,1.6-0.8,3-0.8c1.3,0,2.3,0.7,2.3,1.5c0,0.8-0.4,1-1.3,1.1c0,0-0.2,0-2.3,0.4
		c-2.3,0.4-3.3,1.4-3.4,3.4c0,0.1,0,0.1,0,0.2c0,0.9,0.3,1.7,0.9,2.4c0.8,0.8,1.9,1.2,3.2,1.2c0.9,0,1.9-0.2,2.8-0.8v0.7L174.8,35z
		 M171.7,29.3v2.1c0,1.2-1.3,2-2.6,2c-0.6,0-1.2-0.2-1.6-0.7c-0.3-0.3-0.4-0.7-0.4-1.1l0-0.1c0.1-0.9,0.7-1.5,1.6-1.6
		c0,0,2.1-0.4,2.1-0.4C170.8,29.5,171.4,29.3,171.7,29.3"/>
	<path class="st0" d="M87.6,34.6L87,35.4h4.2l-0.5-0.7c-0.1-0.2-0.2-0.3-0.2-0.4c-0.1-0.4-0.1-0.6-0.1-0.9v-5.7
		c0-1.2-0.5-2.3-1.4-3.1c-0.9-0.9-2.3-1.4-3.6-1.3c-1.2,0-2.1,0.3-2.9,1c0-0.1,0-0.6,0-0.6l-0.3,0h-2.7l0.4,1.1c0,0,0,0,0,0
		c0,0,0,0.1,0,0.2l0.1,0.4V34c0,0.1,0,0.2-0.1,0.3c0,0-0.2,0.4-0.2,0.4c0,0-0.2,0.3-0.2,0.3l-0.2,0.4h3.8l-0.5-1.1
		c-0.1-0.3-0.1-0.6-0.1-1v-5.5c0-1.5,1-2.5,2.5-2.5c0.9,0,1.7,0.3,2.3,0.8c0.4,0.4,0.6,0.8,0.6,1.3v6c0,0,0,0.4,0,0.4
		c0,0,0,0.6,0,0.6C87.8,34.4,87.8,34.4,87.6,34.6"/>
	<path class="st0" d="M132.6,22.8c-0.9-0.1-1.6,0-2.3,0.4c-0.3,0.2-0.6,0.4-0.8,0.6v-0.5H126l0.5,0.6c0.2,0.2,0.3,0.4,0.4,0.6
		c0.1,0.2,0.1,0.4,0.1,0.7V33c0,0,0,0.2,0,0.2c0,0.3,0,0.5-0.1,0.8c0,0.1-0.1,0.2-0.2,0.3c0,0-0.5,0.8-0.5,0.8l0.8,0h3.4l-0.4-0.7
		c-0.2-0.3-0.3-0.5-0.3-0.7c-0.1-0.4-0.1-0.6-0.1-1v-4.9c0-1.1,0.5-2.1,1.2-2.5c0.6-0.3,1-0.3,1.6-0.1c0,0,0.6,0.2,0.6,0.2v-2.4
		L132.6,22.8z"/>
	<path class="st0" d="M158.2,18.6h-2.8v2.9h2.8V18.6z M155.6,34.4l-0.5,0.7h3.8l-0.4-0.8c0,0-0.1-0.3-0.1-0.3c0-0.2,0-0.2,0-0.5
		V23.3h-3.3l0.5,0.5c0.1,0.1,0.2,0.2,0.3,0.4c0,0.1,0.1,0.2,0.1,0.4c0,0,0,0.2,0,0.2v8.8c0,0,0,0.2,0,0.2c0,0,0,0.4,0,0.4
		C155.7,34.2,155.6,34.3,155.6,34.4"/>
	<path class="st0" d="M148.9,35.1l-0.6-0.8c-0.1-0.2-0.1-0.2-0.2-0.3c-0.1-0.9-0.1-1.4-0.1-2.4V17.2h-3.4l0.6,0.7
		c0,0,0.1,0.2,0.2,0.2c0,0,0,0,0,0c0,0,0.1,0.3,0.1,0.3s0,3.9,0,5.3c-0.9-0.7-1.8-0.9-3-0.9c-3.4,0.1-5.4,2.3-5.4,6.1
		c0,1.9,0.7,3.7,1.9,4.9c1,1,2.3,1.5,3.8,1.4c1.1,0,1.9-0.3,2.8-0.8v0.6H148.9z M145.6,27.7v2.6c0,0.9-0.3,1.7-0.8,2.2
		c-0.5,0.5-1.2,0.7-2.1,0.7c-0.8,0-1.6-0.4-2.1-1.1c-0.8-0.9-1.1-2.2-1-3.5c0.2-1.6,0.9-3.5,3.2-3.6c0.8,0,1.5,0.2,2.1,0.7
		C145.3,26.3,145.6,26.9,145.6,27.7"/>
	<path class="st0" d="M66.2,9.8v2.2c0,1.3-0.9,1.8-2,1.8c-1.1,0-2-0.5-2-1.8V9.8h1v2.3c0,0.6,0.4,0.9,1,0.9c0.5,0,1-0.3,1-1V9.8
		H66.2z"/>
	<polygon class="st0" points="75.8,13.8 74.9,13.8 72.7,11.2 72.7,13.8 71.8,13.8 71.8,9.8 72.7,9.8 74.8,12.2 74.8,9.8 75.8,9.8 	
		"/>
	<rect x="81.4" y="9.8" class="st0" width="1" height="3.9"/>
	<polygon class="st0" points="89.8,13.8 89.4,13.8 87.5,9.8 88.6,9.8 89.6,12.1 90.6,9.8 91.7,9.8 	"/>
	<polygon class="st0" points="99.7,13.8 96.8,13.8 96.8,9.8 99.7,9.8 99.7,10.5 97.8,10.5 97.8,11.4 99.6,11.4 99.6,12.1 97.8,12.1 
		97.8,13 99.7,13 	"/>
	<path class="st0" d="M106.9,9.8c0.8,0,1.3,0.5,1.3,1.1c0,0.4-0.2,0.8-0.7,1c0.4,0.2,0.5,0.7,1.1,1.8h-1.1c-0.4-0.8-0.6-1.6-1.1-1.6
		h-0.3v1.6h-1V9.8H106.9z M106.1,11.4h0.5c0.3,0,0.5-0.1,0.5-0.5c0-0.3-0.2-0.4-0.6-0.4h-0.5V11.4z"/>
	<path class="st0" d="M116.4,10.8c-0.6-0.3-0.9-0.4-1.3-0.4c-0.4,0-0.6,0.1-0.6,0.3c0,0.6,2,0.4,2,1.8c0,0.8-0.6,1.2-1.5,1.2
		c-0.7,0-1-0.2-1.4-0.4v-0.8c0.6,0.4,0.9,0.5,1.3,0.5c0.4,0,0.6-0.1,0.6-0.4c0-0.6-2-0.4-2-1.8c0-0.7,0.6-1.1,1.5-1.1
		c0.4,0,0.8,0.1,1.3,0.3V10.8z"/>
	<rect x="122" y="9.8" class="st0" width="1" height="3.9"/>
	<polygon class="st0" points="132.1,10.5 130.7,10.5 130.7,13.8 129.7,13.8 129.7,10.5 128.3,10.5 128.3,9.8 132.1,9.8 	"/>
	<path class="st0" d="M140.3,13.8h-2.9V9.8h2.9v0.7h-1.9v0.8h1.8v0.7h-1.8V13h1.9V13.8z M138.7,9.4h-0.4l0.4-0.8h1L138.7,9.4z"/>
	<path class="st0" d="M105.9,43.4v2.2c0,1.3-0.9,1.8-2,1.8c-1.1,0-2-0.5-2-1.8v-2.2h1v2.3c0,0.6,0.4,0.9,1,0.9c0.5,0,1-0.3,1-1v-2.2
		H105.9z"/>
	<polygon class="st0" points="115.5,47.4 114.6,47.4 112.4,44.9 112.4,47.4 111.5,47.4 111.5,43.4 112.4,43.4 114.5,45.9 
		114.5,43.4 115.5,43.4 	"/>
	<rect x="121.1" y="43.4" class="st0" width="1" height="3.9"/>
	<polygon class="st0" points="129.5,47.4 129.1,47.4 127.2,43.4 128.3,43.4 129.3,45.7 130.3,43.4 131.4,43.4 	"/>
	<polygon class="st0" points="139.4,47.4 136.5,47.4 136.5,43.4 139.4,43.4 139.4,44.2 137.5,44.2 137.5,45 139.3,45 139.3,45.7 
		137.5,45.7 137.5,46.7 139.4,46.7 	"/>
	<path class="st0" d="M146.6,43.4c0.8,0,1.3,0.5,1.3,1.1c0,0.4-0.2,0.8-0.7,1c0.4,0.2,0.5,0.7,1.1,1.8h-1.1
		c-0.4-0.8-0.6-1.6-1.1-1.6h-0.3v1.6h-1v-3.9H146.6z M145.8,45.1h0.5c0.3,0,0.5-0.1,0.5-0.5c0-0.3-0.2-0.4-0.6-0.4h-0.5V45.1z"/>
	<path class="st0" d="M156.1,44.5c-0.6-0.3-0.9-0.4-1.2-0.4c-0.4,0-0.6,0.1-0.6,0.3c0,0.6,2,0.4,2,1.8c0,0.8-0.6,1.2-1.5,1.2
		c-0.7,0-1-0.2-1.4-0.4v-0.8c0.6,0.4,0.9,0.5,1.3,0.5c0.4,0,0.6-0.1,0.6-0.4c0-0.6-2-0.4-2-1.8c0-0.7,0.6-1.1,1.5-1.1
		c0.4,0,0.8,0.1,1.3,0.3V44.5z"/>
	<rect x="161.7" y="43.4" class="st0" width="1" height="3.9"/>
	<polygon class="st0" points="171.8,44.2 170.4,44.2 170.4,47.4 169.4,47.4 169.4,44.2 168,44.2 168,43.4 171.8,43.4 	"/>
	<polygon class="st0" points="178.2,45.5 176.6,43.4 177.8,43.4 178.7,44.7 179.5,43.4 180.7,43.4 179.2,45.5 179.2,47.4 
		178.2,47.4 	"/>
</g>
<g>
	<defs>
		<rect id="SVGID_3_" x="9.6" y="6.7" width="171.2" height="40.8"/>
	</defs>
	<clipPath id="SVGID_4_">
		<use xlink:href="#SVGID_3_"  style="overflow:visible;"/>
	</clipPath>
	<path class="st1" d="M9.6,13.8l4.3,7.2c-0.3-1.3-0.8-3.8-0.8-3.8c0.6,0.5,7,2.7,8.4,3.1l0,0c-0.9-1.4-2.2-2.7-3.5-4.1
		c0.9,0.9,2.5,1.9,3.8,2.7c0.5,0.3,1,0.6,1.5,0.9c-0.1-1.5-0.8-3-1.3-4.4c0.4,1.1,1.6,2.3,2.5,3.3c0.3,0.3,0.5,0.6,0.8,0.9
		c0.7-1.4,1-3,1-4.4c0,1.3,0.3,3,1,4.4c0.4-0.3,0.7-0.7,1-1.1c0.8-1,1.9-2.1,2.3-3.1c-0.6,1.5-1.2,2.9-1.3,4.4
		c2.1-1.1,3.7-2.4,5.3-3.6c-1.3,0.9-2.2,2.2-3,3.3c-0.2,0.2-0.4,0.5-0.5,0.7l0,0c1.3-0.4,7.7-2.3,7.7-2.3l-10.1,4.9l10-4.7l-0.5,2.9
		l0.2,0.4l4.7-7.7H9.6z M15.4,28.9c0,0,4.3,6.5,10.5,10l0-14.5l-12.3-6.4L15.4,28.9z M26.9,38.8c0.1-0.1,0.3-0.1,0.4-0.2
		c0.1-0.1,0.2-0.1,0.3-0.2V23.8L26.9,24V38.8z"/>
	<path class="st1" d="M9.7,8v2.8c2.9-0.6,8-1.5,15.2-1.8c9.9-0.2,16,1,17.7,1.4c-0.2-0.1-5.9-2.7-16.6-3.6C16.2,6.1,10.7,7.9,9.7,8
		 M42.6,10.4C42.6,10.4,42.6,10.4,42.6,10.4C42.6,10.4,42.6,10.4,42.6,10.4C42.6,10.4,42.6,10.4,42.6,10.4 M26.4,43.4
		c-3.6-1.7-12.2-7.2-16-18.7c-0.1-0.3-0.2-0.6-0.3-1c0.1,0.4,0.1,0.8,0.2,1.3l0,0c0.1,0.7,0.3,1.4,0.5,2.1
		c3.6,12.2,12.3,18.6,15.6,20.3c2.5-1.3,8.3-6.3,12.4-13.6C34.6,39,28.8,42.3,26.4,43.4 M13.6,17.9c6,5,12.5,6.5,12.8,6.6l0,0
		c0,0,4.9-1,11.7-5.8c-0.1,1-0.4,4.2-0.9,7.7l2.3-9c0,0-10.1,5.3-13.2,5.5C22.9,22.6,13.6,17.9,13.6,17.9 M39.5,17.4
		C39.5,17.4,39.5,17.4,39.5,17.4"/>
</g>
</svg>
