<?xml version="1.0" encoding="utf-8"?>
<!-- Generator: Adobe Illustrator 21.0.0, SVG Export Plug-In . SVG Version: 6.00 Build 0)  -->
<svg version="1.1" xmlns="http://www.w3.org/2000/svg" xmlns:xlink="http://www.w3.org/1999/xlink" x="0px" y="0px"
	 viewBox="0 0 229 64" style="enable-background:new 0 0 229 64;" xml:space="preserve">
<style type="text/css">
	.st0{clip-path:url(#SVGID_2_);fill:#94042E;}
	.st1{clip-path:url(#SVGID_2_);fill:#B8966A;}
	.st2{clip-path:url(#SVGID_2_);fill:#D5BEA0;}
	.st3{clip-path:url(#SVGID_2_);fill:#FFFFFF;}
</style>
<g id="Layer_1">
	<g id="Capa_1">
	</g>
	<g>
		<defs>
			<rect id="SVGID_1_" x="6.8" y="6.2" width="215.8" height="51.3"/>
		</defs>
		<clipPath id="SVGID_2_">
			<use xlink:href="#SVGID_1_"  style="overflow:visible;"/>
		</clipPath>
		<path class="st0" d="M69.5,37.5c-1.7,1.2-3.7,1.7-6.1,1.8c-2.8,0.1-5.3-0.8-7-2.6c-1.6-1.6-2.5-3.7-2.4-6.2c0-2.5,1-4.8,2.7-6.5
			c1.7-1.6,4-2.5,6.6-2.5c1.9,0,3.1,0.4,4.8,1.3l0.8,0.5v-3.4l-0.3-0.1c-1.9-0.8-3.1-0.9-5.3-1c-3.7,0-7.1,1.3-9.5,3.6
			c-2.1,2.1-3.3,5-3.3,8.1c0,3.2,1.3,6.1,3.5,8.3c2.4,2.3,5.8,3.5,9.5,3.3l0.3,0c1.9-0.1,3.2-0.1,5.1-0.8l0.2-0.1l1.9-4.8L69.5,37.5
			z"/>
		<path class="st0" d="M88.1,28.9c-1.5-1.5-3.4-2.4-5.5-2.4h0c-2.1,0-4.1,0.8-5.6,2.3c-1.5,1.5-2.3,3.4-2.3,5.4
			c0,4.2,3.4,7.7,7.7,7.7c2.1,0,4.1-0.8,5.6-2.2c1.5-1.4,2.3-3.3,2.3-5.3C90.2,32.3,89.5,30.4,88.1,28.9 M82.4,39.4
			c-2.5,0-4.5-2.2-4.6-5.1c0-1.5,0.6-3,1.6-4c0.8-0.8,1.9-1.2,3-1.2c2.5,0.1,4.6,2.4,4.6,5.1l0,0.2C86.9,37.1,84.9,39.4,82.4,39.4"
			/>
		<path class="st0" d="M126.9,38.5c-0.9,0.6-2.5,1.1-4.1,1.1c-1.4,0-2.7-0.5-3.7-1.5c-1-1-1.5-2.4-1.5-3.8c0-2.9,2.2-5.2,5.1-5.3
			c1.3,0,2.7,0.4,3.5,1l0.9,0.7v-3.4l-0.3-0.1c-1.5-0.6-2.5-0.6-4-0.6l-0.1,0c-2.4-0.1-4.6,0.8-6.2,2.3c-1.4,1.4-2.2,3.3-2.2,5.3
			c0,0.1,0,0.1,0,0.2c0,2.1,0.8,4,2.3,5.4c1.6,1.5,3.8,2.3,6.2,2.2l0.5,0c1.3,0,2.4-0.1,3.8-0.6l0.1,0l0.2-0.1l0.6-3.5L126.9,38.5z"
			/>
		<path class="st0" d="M146.2,28.9c-1.5-1.5-3.4-2.4-5.5-2.4c-2.1,0-4.1,0.8-5.6,2.3c-1.5,1.5-2.3,3.4-2.3,5.4
			c0,4.2,3.4,7.7,7.7,7.7c2.1,0,4.1-0.8,5.6-2.2c1.5-1.4,2.3-3.3,2.3-5.3c0-0.1,0-0.1,0-0.2C148.3,32.2,147.6,30.4,146.2,28.9
			 M140.5,39.4c-2.5,0-4.5-2.2-4.6-5.1c0-1.5,0.6-3,1.6-4c0.8-0.8,1.9-1.2,3-1.2c2.6,0.1,4.6,2.4,4.6,5.1l0,0.2
			C145.1,37.1,143,39.4,140.5,39.4"/>
		<path class="st0" d="M215.9,41.7l-0.4-0.8c-0.2-0.3-0.2-0.5-0.3-0.9c-0.1-0.3-0.1-0.5-0.1-0.9v-7.6c0-3.4-1.9-5-6-5.2h0
			c-1.5,0-3,0.1-4.5,1l-0.3,0.2v3.1l0.9-0.8c0.8-0.7,2-1,3.8-1c1.7,0,2.9,0.8,2.9,1.9c0,1-0.5,1.2-1.6,1.4c0,0-0.3,0-2.9,0.5
			c-2.9,0.4-4.2,1.7-4.3,4.3c0,0.1,0,0.2,0,0.3c0,1.2,0.4,2.2,1.2,3c1,1,2.5,1.6,4.1,1.6c1.1,0,2.4-0.2,3.6-1v0.8L215.9,41.7z
			 M212.1,34.4V37c0,1.6-1.7,2.5-3.3,2.6c-0.8,0-1.6-0.3-2.1-0.8c-0.4-0.4-0.5-0.8-0.5-1.3l0-0.2c0.1-1.1,0.8-1.8,2.1-2.1l2.6-0.5
			C210.9,34.7,211.6,34.5,212.1,34.4"/>
		<path class="st0" d="M105.6,41.2l-0.7,0.9h5.3l-0.7-0.9c-0.2-0.2-0.2-0.3-0.3-0.5c-0.1-0.5-0.2-0.7-0.2-1.2v-7.2
			c0-1.5-0.6-2.9-1.7-3.9c-1.2-1.1-2.9-1.7-4.6-1.7c-1.5,0-2.6,0.4-3.7,1.2c0-0.2,0-0.7,0-0.7l-0.3,0h-3.4l0.5,1.4l0,0
			c0,0.1,0,0.1,0,0.2l0.1,0.5v11.1c0,0.2,0,0.3-0.1,0.4l-0.2,0.5l-0.3,0.4l-0.3,0.5h4.8l-0.7-1.4c-0.1-0.4-0.2-0.7-0.2-1.3v-7
			c0-1.9,1.3-3.2,3.1-3.2c1.1,0,2.2,0.4,2.9,1c0.5,0.5,0.7,1,0.7,1.7v7.6l0,0.4l0,0.8C105.9,40.8,105.8,40.9,105.6,41.2"/>
		<path class="st0" d="M162.5,26.3c-1.1-0.2-2,0-3,0.5c-0.4,0.2-0.7,0.5-1,0.7v-0.6h-4.4l0.6,0.7c0.3,0.3,0.4,0.5,0.5,0.8
			c0.1,0.3,0.1,0.5,0.1,0.8v9.9l0,0.2c0,0.4,0,0.6-0.1,1c0,0.2-0.1,0.3-0.2,0.4l-0.6,1l1,0h4.3l-0.5-0.8c-0.2-0.4-0.3-0.6-0.4-0.9
			c-0.1-0.5-0.2-0.8-0.2-1.3v-6.2c0-1.4,0.6-2.6,1.5-3.1c0.7-0.4,1.3-0.4,2.1-0.2l0.7,0.2v-3.1L162.5,26.3z"/>
		<path class="st0" d="M194.9,20.9h-3.6v3.7h3.6V20.9z M191.6,40.9l-0.6,0.9h4.8l-0.6-1l-0.2-0.4c-0.1-0.2-0.1-0.3-0.1-0.6v-13h-4.2
			l0.6,0.6c0.1,0.1,0.2,0.3,0.3,0.5c0.1,0.2,0.1,0.3,0.1,0.5l0,0.3v11.1l0,0.2l0,0.5C191.7,40.7,191.7,40.7,191.6,40.9"/>
		<path class="st0" d="M183.2,41.8l-0.7-1c-0.1-0.2-0.2-0.3-0.2-0.4c-0.2-1.1-0.2-1.8-0.2-3V19.2h-4.3l0.7,0.9c0,0,0.2,0.2,0.2,0.3
			l0,0l0.1,0.4c0,0,0,4.9,0,6.7c-1.2-0.8-2.3-1.2-3.8-1.1c-4.3,0.2-6.8,3-6.9,7.7c0,2.4,0.9,4.7,2.4,6.2c1.3,1.2,3,1.8,4.8,1.8
			c1.4,0,2.4-0.4,3.5-1v0.8H183.2z M179,32.5v3.3c0,1.2-0.4,2.1-1,2.7c-0.6,0.6-1.6,0.9-2.6,0.8c-1.1,0-2-0.5-2.7-1.4
			c-1-1.1-1.4-2.8-1.3-4.4c0.2-2,1.1-4.4,4-4.6c1,0,2,0.3,2.6,0.9C178.6,30.6,179,31.5,179,32.5"/>
		<path class="st1" d="M77.9,10.2V13c0,1.7-1.1,2.2-2.5,2.2c-1.5,0-2.5-0.7-2.5-2.2v-2.9h1.3v2.9c0,0.7,0.5,1.2,1.2,1.2
			c0.7,0,1.3-0.3,1.3-1.2v-2.8H77.9z"/>
		<polygon class="st1" points="90,15.2 89,15.2 86.2,12 86.2,15.2 85,15.2 85,10.2 86.1,10.2 88.8,13.2 88.8,10.2 90,10.2 		"/>
		<rect x="97.2" y="10.2" class="st1" width="1.2" height="5"/>
		<polygon class="st1" points="107.9,15.3 107.4,15.3 105,10.2 106.3,10.2 107.6,13 108.9,10.2 110.2,10.2 		"/>
		<polygon class="st1" points="120.5,15.2 116.8,15.2 116.8,10.2 120.4,10.2 120.4,11.1 118,11.1 118,12.2 120.3,12.2 120.3,13.1 
			118,13.1 118,14.3 120.5,14.3 		"/>
		<path class="st1" d="M129.6,10.2c1,0,1.6,0.7,1.6,1.4c0,0.6-0.3,1-0.9,1.2c0.5,0.3,0.7,0.9,1.4,2.3h-1.4c-0.5-1.1-0.7-2-1.4-2
			h-0.4v2h-1.3v-5H129.6z M128.6,12.2h0.7c0.3,0,0.7-0.1,0.7-0.6c0-0.4-0.2-0.6-0.7-0.6h-0.6V12.2z"/>
		<path class="st1" d="M141.7,11.5c-0.7-0.3-1.2-0.4-1.6-0.4c-0.4,0-0.7,0.2-0.7,0.4c0,0.8,2.6,0.5,2.6,2.3c0,1-0.8,1.5-1.9,1.5
			c-0.9,0-1.3-0.2-1.8-0.5v-1.1c0.7,0.5,1.2,0.6,1.7,0.6c0.5,0,0.7-0.2,0.7-0.5c0-0.8-2.5-0.5-2.5-2.3c0-0.9,0.7-1.4,1.9-1.4
			c0.6,0,1.1,0.1,1.7,0.4V11.5z"/>
		<rect x="148.7" y="10.2" class="st1" width="1.2" height="5"/>
		<polygon class="st1" points="161.6,11.1 159.8,11.1 159.8,15.2 158.5,15.2 158.5,11.1 156.7,11.1 156.7,10.2 161.6,10.2 		"/>
		<path class="st1" d="M172,15.2h-3.7v-5h3.6v0.9h-2.4v1.1h2.3v0.9h-2.3v1.2h2.4V15.2z M170,9.7h-0.5l0.5-1.1h1.2L170,9.7z"/>
		<path class="st1" d="M127.6,52.3v2.8c0,1.7-1.1,2.2-2.5,2.2c-1.5,0-2.5-0.7-2.5-2.2v-2.9h1.2v2.9c0,0.7,0.5,1.2,1.2,1.2
			c0.7,0,1.3-0.3,1.3-1.2v-2.8H127.6z"/>
		<polygon class="st1" points="139.7,57.3 138.6,57.3 135.8,54.1 135.8,57.3 134.6,57.3 134.6,52.3 135.7,52.3 138.4,55.4 
			138.4,52.3 139.7,52.3 		"/>
		<rect x="146.8" y="52.3" class="st1" width="1.3" height="5"/>
		<polygon class="st1" points="157.5,57.4 157,57.4 154.6,52.3 155.9,52.3 157.3,55.2 158.5,52.3 159.9,52.3 		"/>
		<polygon class="st1" points="170.1,57.3 166.4,57.3 166.4,52.3 170,52.3 170,53.2 167.6,53.2 167.6,54.3 169.9,54.3 169.9,55.2 
			167.6,55.2 167.6,56.4 170.1,56.4 		"/>
		<path class="st1" d="M179.2,52.3c1,0,1.6,0.7,1.6,1.4c0,0.5-0.3,1-0.9,1.2c0.5,0.3,0.7,0.9,1.4,2.3H180c-0.5-1.1-0.7-2-1.4-2h-0.4
			v2H177v-5H179.2z M178.2,54.4h0.7c0.3,0,0.7-0.1,0.7-0.6c0-0.4-0.2-0.6-0.7-0.6h-0.6V54.4z"/>
		<path class="st1" d="M191.3,53.6c-0.7-0.3-1.2-0.4-1.6-0.4c-0.4,0-0.7,0.2-0.7,0.4c0,0.8,2.5,0.5,2.5,2.3c0,1-0.8,1.5-1.9,1.5
			c-0.9,0-1.3-0.2-1.8-0.5v-1.1c0.7,0.5,1.2,0.6,1.7,0.6c0.5,0,0.7-0.2,0.7-0.5c0-0.8-2.5-0.5-2.5-2.3c0-0.9,0.7-1.4,1.9-1.4
			c0.6,0,1.1,0.1,1.7,0.4V53.6z"/>
		<rect x="198.3" y="52.3" class="st1" width="1.2" height="5"/>
		<polygon class="st1" points="211.2,53.2 209.4,53.2 209.4,57.3 208.2,57.3 208.2,53.2 206.3,53.2 206.3,52.3 211.2,52.3 		"/>
		<polygon class="st1" points="219.3,55 217.4,52.3 218.9,52.3 220,53.9 221.1,52.3 222.6,52.3 220.6,55 220.6,57.3 219.3,57.3 		
			"/>
		<polygon class="st2" points="28,27.8 43.3,20.6 42.6,24.3 42.8,24.8 48.7,15.1 6.7,15.1 12.6,24.9 		"/>
		<polygon class="st3" points="27.8,28 12.3,25 12.1,24.1 12.6,24.9 28,27.8 30.8,26.5 		"/>
		<path class="st3" d="M28,27.8l-15.4-2.9l-0.5-0.8l-1-4.7c0.7,0.6,8.8,3.4,10.5,3.9l0,0c-1.1-1.8-2.8-3.4-4.4-5.1
			c1.1,1.2,3.2,2.3,4.8,3.4c0.6,0.4,1.2,0.8,1.9,1.1c-0.1-1.9-1-3.7-1.7-5.5c0.5,1.4,2,2.9,3.1,4.1c0.3,0.4,0.7,0.7,1,1.1
			c0.9-1.8,1.2-3.7,1.3-5.6c0,1.7,0.3,3.8,1.3,5.5c0.5-0.4,0.9-0.9,1.3-1.3c1-1.2,2.4-2.6,2.9-3.9c-0.7,1.8-1.5,3.7-1.6,5.6
			c2.6-1.3,4.7-3.1,6.7-4.5c-1.6,1.2-2.7,2.8-3.8,4.2c-0.2,0.3-0.5,0.6-0.7,0.9l0,0c1.7-0.5,9.6-2.9,9.6-2.9l-12.6,6.1L28,27.8"/>
		<path class="st0" d="M27.4,6.4C15,5.5,8.2,7.7,6.9,7.9v3.5c3.6-0.8,10-1.9,19.1-2.2h0l0,0l0,0c12.5-0.2,20.1,1.2,22.3,1.7v0
			C48.2,10.9,41.1,7.6,27.4,6.4"/>
		<path class="st0" d="M43.5,40.3c-5.3,6.4-12.6,11-15.6,12.4c-4.5-2.1-15.3-9.5-20.1-23.8c-0.1-0.4-0.2-0.8-0.3-1.2
			c0.1,0.5,0.1,1.1,0.2,1.6l0,0C7.8,30.1,8,31,8.3,31.9c4.5,15.4,15.5,23.3,19.6,25.5C31,55.7,38.3,49.6,43.5,40.3"/>
		<path class="st1" d="M11.8,20.3L14.1,34c0,0,5.4,8.2,13.2,12.5l0-18.2L11.8,20.3z"/>
		<path class="st1" d="M28.5,27.9v18.6c0.2-0.1,0.3-0.2,0.5-0.3c0.1-0.1,0.3-0.2,0.4-0.2V27.7L28.5,27.9z"/>
		<path class="st0" d="M44.3,19.7c0,0-12.7,6.6-16.5,6.9c-4.3-0.4-16-6.3-16-6.3c7.5,6.3,15.7,8.2,16.1,8.3l0,0
			c0,0,6.2-1.2,14.7-7.3c-0.1,1.3-0.5,5.2-1.2,9.7L44.3,19.7z"/>
	</g>
</g>
<g id="Layer_3">
</g>
<g id="Design">
</g>
</svg>
